<svg id="Component_1_1" data-name="Component 1 – 1" xmlns="http://www.w3.org/2000/svg" width="1921" height="928" viewBox="0 0 1921 928">
  <g id="stacked-waves-haikei_2_" data-name="stacked-waves-haikei(2)">
    <path id="Path_27" data-name="Path 27" d="M0,271l26.7-14.3c26.6-14.4,80-43,133.3-37.7s106.7,44.7,160,78.8C373.3,332,426.7,361,480,357.5S586.7,318,640,307.2c53.3-10.9,106.7,3.5,160,16s106.7,23.1,160,1.5c53.3-21.7,106.7-75.7,160-70.2s106.7,70.5,160,81.3c53.3,10.9,106.7-32.5,160-52.3s106.7-16.2,160-5.3c53.3,10.8,106.7,28.8,160,52.1,53.3,23.4,106.7,52,133.3,66.4L1920,411V0H0Z" fill="#49545b"/>
    <path id="Path_28" data-name="Path 28" d="M0,552l26.7-9c26.6-9,80-27,133.3-10.8,53.3,16.1,106.7,66.5,160,91.6,53.3,25.2,106.7,25.2,160,18,53.3-7.1,106.7-21.5,160-37.6C693.3,588,746.7,570,800,566.3c53.3-3.6,106.7,7,160,10.5s106.7-.1,160,16c53.3,16.2,106.7,52.2,160,81,53.3,28.9,106.7,50.5,160,47s106.7-32.1,160-44.6,106.7-8.9,160-17.9,106.7-30.6,133.3-41.5L1920,606V409l-26.7-14.3c-26.6-14.4-80-43-133.3-66.4-53.3-23.3-106.7-41.3-160-52.1-53.3-10.9-106.7-14.5-160,5.3s-106.7,63.2-160,52.3c-53.3-10.8-106.7-75.8-160-81.3S1013.3,301,960,322.7c-53.3,21.6-106.7,11-160-1.5s-106.7-26.9-160-16C586.7,316,533.3,352,480,355.5S373.3,330,320,295.8c-53.3-34.1-106.7-73.5-160-78.8S53.3,240.3,26.7,254.7L0,269Z" transform="translate(0 -57.175)" fill="#434b51"/>
    <path id="Path_29" data-name="Path 29" d="M0,703l26.7-3.7c26.6-3.6,80-11,133.3,5.2s106.7,55.8,160,79.3,106.7,30.9,160,25.5C533.3,804,586.7,786,640,768s106.7-36,160-46.8c53.3-10.9,106.7-14.5,160-18.2s106.7-7.3,160,17.8C1173.3,746,1226.7,800,1280,827s106.7,27,160,28.8c53.3,1.9,106.7,5.5,160,5.5s106.7-3.6,160-14.5c53.3-10.8,106.7-28.8,133.3-37.8l26.7-9V604l-26.7,10.8c-26.6,10.9-80,32.5-133.3,41.5s-106.7,5.4-160,17.9-106.7,41.1-160,44.6-106.7-18.1-160-47c-53.3-28.8-106.7-64.8-160-81-53.3-16.1-106.7-12.5-160-16s-106.7-14.1-160-10.5C746.7,568,693.3,586,640,602.2c-53.3,16.1-106.7,30.5-160,37.6-53.3,7.2-106.7,7.2-160-18-53.3-25.1-106.7-75.5-160-91.6C106.7,514,53.3,532,26.7,541L0,550Z" transform="translate(0 -152.038)" fill="#3c4248"/>
    <path id="Path_30" data-name="Path 30" d="M0,930l26.7-3.7c26.6-3.6,80-11,133.3-7.5s106.7,17.9,160,34c53.3,16.2,106.7,34.2,160,36,53.3,1.9,106.7-12.5,160-19.6,53.3-7.2,106.7-7.2,160-3.5,53.3,3.6,106.7,11,160,12.8s106.7-1.8,160-1.8,106.7,3.6,160,9c53.3,5.3,106.7,12.3,160,15.8s106.7,3.5,160,3.5,106.7,0,160-12.5,106.7-37.5,133.3-50L1920,930V798l-26.7,9c-26.6,9-80,27-133.3,37.8-53.3,10.9-106.7,14.5-160,14.5s-106.7-3.6-160-5.5c-53.3-1.8-106.7-1.8-160-28.8s-106.7-81-160-106.2c-53.3-25.1-106.7-21.5-160-17.8s-106.7,7.3-160,18.2C746.7,730,693.3,748,640,766s-106.7,36-160,41.3c-53.3,5.4-106.7-2-160-25.5s-106.7-63.1-160-79.3-106.7-8.8-133.3-5.2L0,701Z" transform="translate(0 -152)" fill="#35393e"/>
    <path id="Path_31" data-name="Path 31" d="M0,915.884H1920v153l-26.7-12.5c-26.6-12.5-80-37.5-133.3-50s-106.7-12.5-160-12.5-106.7,0-160,3.5-106.7,10.5-160,15.8c-53.3,5.4-106.7,9-160,9s-106.7-3.6-160-1.8-106.7,9.2-160,12.8c-53.3,3.7-106.7,3.7-160-3.5-53.3-7.1-106.7-21.5-160-19.6-53.3,1.8-106.7,19.8-160,36-53.3,16.1-106.7,30.5-160,34s-106.7-3.9-133.3-7.5l-26.7-3.7Z" transform="translate(1 -153)" fill="#35393e"/>
  </g>
  <g id="circle-scatter-haikei_1_" data-name="circle-scatter-haikei(1)" transform="translate(233 65)" opacity="0.27">
    <circle id="Ellipse_17" data-name="Ellipse 17" cx="124" cy="124" r="124" transform="translate(1333 110)" fill="#2e3135"/>
    <circle id="Ellipse_18" data-name="Ellipse 18" cx="55" cy="55" r="55" transform="translate(56)" fill="#2e3135"/>
    <circle id="Ellipse_19" data-name="Ellipse 19" cx="103" cy="103" r="103" transform="translate(0 427)" fill="#2e3135"/>
    <circle id="Ellipse_20" data-name="Ellipse 20" cx="94" cy="94" r="94" transform="translate(798 560)" fill="#2e3135"/>
  </g>
</svg>
